<?xml version="1.0" encoding="UTF-8"?>
<svg version="1.1" xmlns="http://www.w3.org/2000/svg" width="512" height="512">
<path d="M0 0 C10.33151931 8.01332649 10.33151931 8.01332649 14.44140625 12.61328125 C17.38525242 15.23249275 21.18507379 16.64590299 24.73046875 18.30664062 C34.21136885 22.86437526 39.27045969 29.47108486 43.375 39 C46.87390186 49.46730303 46.15192412 60.58793709 41.90625 70.65625 C39.4455143 77.02022163 41.15117291 82.64301299 43.81640625 88.68359375 C47.13895129 95.1861324 51.63730797 98.35221493 57.6953125 102.19140625 C61.27366821 104.99950573 62.79899526 107.71859476 63.5 112.1875 C62.83542806 117.25486101 60.72284955 123.27715045 57 127 C56.6231035 134.34128833 59.32462768 139.52923239 64 145 C66.21340847 147.1597965 68.48021359 149.19133663 70.8515625 151.17578125 C76.05778684 155.59633901 81.11202796 160.89622371 82 168 C82.22580645 174.5483871 82.22580645 174.5483871 81 177 C82.39232487 176.99308655 82.39232487 176.99308655 83.81277752 176.98603344 C106.38824101 176.87508336 128.96366919 176.79289401 151.53934765 176.74093914 C162.4567502 176.71514694 173.37397274 176.67997687 184.29125977 176.62280273 C193.80570526 176.57299903 203.32002042 176.54071638 212.83459264 176.52955753 C217.87352177 176.52303365 222.91207797 176.50767946 227.95088768 176.47134972 C232.69266428 176.43743823 237.43391398 176.42693725 242.17580032 176.43446159 C243.91690368 176.43308488 245.65802448 176.4231234 247.39902306 176.40397263 C249.77575315 176.37910902 252.1504917 176.38506862 254.52726746 176.39872742 C255.56181361 176.37688111 255.56181361 176.37688111 256.61725968 176.35459346 C260.42639067 176.41380312 261.92283324 176.93685126 264.91256905 179.3834753 C267.12915644 182.16189326 267.82220485 183.48995646 268 187 C267.68537903 189.64639282 267.68537903 189.64639282 267.05395508 192.54931641 C266.69908775 194.21535667 266.69908775 194.21535667 266.33705139 195.91505432 C265.93237892 197.73987587 265.93237892 197.73987587 265.51953125 199.6015625 C265.23565138 200.91530154 264.952631 202.22922654 264.6703949 203.5433197 C263.89317401 207.14905929 263.10333947 210.751931 262.31092834 214.35435867 C261.47227706 218.17492041 260.64359572 221.99764558 259.81347656 225.82006836 C258.35635765 232.52228347 256.89099655 239.22266294 255.42236328 245.92236328 C253.49871021 254.70064724 251.59411222 263.48296713 249.69570827 272.26674271 C247.890578 280.61801294 246.07842475 288.96773754 244.26100254 297.3163414 C243.14358011 302.44968899 242.02869191 307.58355399 240.92007446 312.71881104 C239.86762757 317.59189412 238.80617244 322.46293128 237.73796272 327.33258247 C237.34355157 329.1376762 236.95227663 330.9434584 236.56432915 332.74995232 C236.0308156 335.23180006 235.48607088 337.71092419 234.93847656 340.18969727 C234.78578214 340.91281412 234.63308771 341.63593098 234.47576618 342.38096046 C233.40402166 347.15479339 232.29774955 351.39184748 228.1449585 354.29830933 C225.55185181 355.14660489 223.41044337 355.24004973 220.68066406 355.22705078 C219.61986633 355.22689972 218.5590686 355.22674866 217.46612549 355.22659302 C216.32746033 355.21627045 215.18879517 355.20594788 214.015625 355.1953125 C212.25952911 355.19106766 212.25952911 355.19106766 210.46795654 355.18673706 C206.72853375 355.17554156 202.98935041 355.15043776 199.25 355.125 C196.71484721 355.1149694 194.17969066 355.10584369 191.64453125 355.09765625 C185.42952101 355.07730586 179.21502857 355.03815502 173 355 C174.65 363.91 176.3 372.82 178 382 C184.6855808 382.1307142 184.6855808 382.1307142 191.37182617 382.20776367 C196.0014119 382.36268988 198.34878105 382.51138354 202.14453125 385.359375 C204.41415355 388.58940589 204.65863191 390.13053752 204 394 C202.22015595 397.1359157 201.47691793 397.84102736 198 399 C195.18163934 399.1068069 192.38764535 399.15725976 189.56884766 399.16113281 C188.70837326 399.16609772 187.84789886 399.17106262 186.96134949 399.17617798 C184.11224572 399.19079373 181.26319761 399.19760036 178.4140625 399.203125 C176.43492633 399.2088766 174.45579018 399.21463433 172.47665405 399.22039795 C168.32557923 399.23090603 164.17452376 399.23675007 160.0234375 399.24023438 C154.70474551 399.24572102 149.38630927 399.26975355 144.06769753 399.29820633 C139.97904716 399.31683018 135.89045846 399.32203816 131.80176926 399.32357025 C129.84096248 399.32659749 127.88015681 399.33462841 125.91939163 399.34775543 C123.1760435 399.36481179 120.43332107 399.36293678 117.68994141 399.35644531 C116.88041519 399.3656601 116.07088898 399.37487488 115.23683167 399.3843689 C110.18789201 399.34694754 106.64210452 398.64210452 103 395 C102.42373461 387.96956224 102.42373461 387.96956224 104.31640625 384.78515625 C108.63362719 381.91329312 113.17622988 382.32082674 118.25 382.25 C119.796875 382.20552734 119.796875 382.20552734 121.375 382.16015625 C123.91674495 382.08955222 126.45757783 382.03680991 129 382 C128.87882812 381.35973877 128.75765625 380.71947754 128.6328125 380.05981445 C128.08387426 377.14489963 127.54187434 374.22873587 127 371.3125 C126.80921875 370.30509766 126.6184375 369.29769531 126.421875 368.25976562 C126.24140625 367.28330078 126.0609375 366.30683594 125.875 365.30078125 C125.70742188 364.40528564 125.53984375 363.50979004 125.3671875 362.5871582 C125 360 125 360 125 355 C97.94 355 70.88 355 43 355 C43.33 355.66 43.66 356.32 44 357 C44.24552416 361.20320863 44.18521468 365.41543758 44.1875 369.625 C44.19974609 370.78902344 44.21199219 371.95304687 44.22460938 373.15234375 C44.2489998 387.51017273 44.2489998 387.51017273 40.1875 393.8125 C24.88911081 409.11088919 -17.69715894 402.3120841 -37.78143311 402.31466675 C-111.50592568 402.24523369 -111.50592568 402.24523369 -123 393 C-128.32324506 386.7213007 -127.39490894 379.90914855 -127 372 C-128.155 371.814375 -129.31 371.62875 -130.5 371.4375 C-146.07861124 367.91026727 -164.68867876 358.4071923 -173.4921875 344.671875 C-177.09174383 338.36756731 -178.15766749 333.53735337 -178.16796875 326.26953125 C-178.17202225 325.38228363 -178.17607574 324.49503601 -178.18025208 323.5809021 C-178.18978729 320.65806572 -178.18963513 317.73534997 -178.1875 314.8125 C-178.1882251 313.81900543 -178.1889502 312.82551086 -178.18969727 311.8019104 C-178.18803995 291.15902019 -177.27861695 270.59899509 -176 250 C-176.99 249.67 -177.98 249.34 -179 249 C-183.78827662 242.52174339 -184.65828465 235.89915689 -183.59375 227.9765625 C-180.8639421 215.33495209 -173.68749353 207.20261734 -165 198 C-163.84619145 196.69450541 -162.69951828 195.38264382 -161.5625 194.0625 C-159.08376454 191.19022123 -156.5102419 188.42790433 -153.89770508 185.67700195 C-145.94115542 177.2202579 -139.94579991 170.01574307 -140 158 C-140.56103318 153.87467452 -141.48669575 149.86337413 -142.4375 145.8125 C-147.39339321 122.95209586 -147.39339321 122.95209586 -143.69921875 115.30859375 C-142.04768556 113.06478659 -140.49065731 111.53116773 -138.3125 109.8125 C-120.3167268 94.47668597 -112.25381387 71.99795448 -107 49.6875 C-102.58805869 31.12727171 -93.96259709 16.05069648 -77.4375 5.6875 C-76.77234375 5.29046875 -76.1071875 4.8934375 -75.421875 4.484375 C-72.90036259 2.93893191 -70.45678943 1.29224995 -68.00195312 -0.35620117 C-46.52933498 -14.63179405 -21.43547943 -15.10980316 0 0 Z " fill="#514F4E" transform="translate(198,96)"/>
<path d="M0 0 C1.05840088 -0.01051392 1.05840088 -0.01051392 2.13818359 -0.02124023 C8.25941781 0.19388534 11.94800934 2.57515667 16.125 6.875 C26.0867353 21.81760295 25.95668925 41.23095184 22.87084961 58.37109375 C19.46127995 74.72897003 12.42521457 91.52209847 -0.87109375 102.3203125 C-4.6549933 104.75033973 -8.74473512 106.28361138 -13 107.6875 C-9.67270531 114.0076879 -5.93177682 120.00988759 -2.03540039 125.98876953 C1.31724311 131.13535257 2.15921145 134.15377914 2.24609375 140.23046875 C2.27910653 141.79622798 2.3123166 143.36198307 2.34570312 144.92773438 C2.39253249 147.38008874 2.43680577 149.83243665 2.47680664 152.28491211 C2.88727849 181.79570816 2.88727849 181.79570816 15.69921875 207.67578125 C23.86226613 215.0683837 31.3378685 215.08677538 42 214.6875 C41.49242069 222.62553086 40.18478618 230.13788777 38.375 237.875 C37.83132907 240.25895456 37.28839204 242.64307657 36.74609375 245.02734375 C36.4610498 246.27241699 36.17600586 247.51749023 35.88232422 248.80029297 C34.05334145 256.85814122 32.30807223 264.93455398 30.55200195 273.00854492 C30.2612954 274.34425241 29.97052456 275.67994592 29.6796875 277.015625 C29.53808701 277.66622391 29.39648651 278.31682281 29.25059509 278.98713684 C28.33602007 283.17850784 27.39733308 287.36386563 26.4453125 291.546875 C26.09255249 293.11453613 26.09255249 293.11453613 25.73266602 294.71386719 C25.30255529 296.62233662 24.86609342 298.52939214 24.42163086 300.43457031 C23.03897861 306.61445539 21.94841736 312.53275209 24 318.6875 C27.46712111 319.84320704 30.5414956 320.01585293 34.1875 320.25 C35.45980469 320.33378906 36.73210937 320.41757812 38.04296875 320.50390625 C39.01878906 320.56449219 39.99460938 320.62507813 41 320.6875 C42.68985456 325.75706367 42.18459842 331.06800515 42.1875 336.375 C42.19974609 337.53451172 42.21199219 338.69402344 42.22460938 339.88867188 C42.24901355 354.19765139 42.24901355 354.19765139 38.1875 360.5 C22.88911081 375.79838919 -19.69715894 368.9995841 -39.78143311 369.00216675 C-113.50592568 368.93273369 -113.50592568 368.93273369 -125 359.6875 C-130.32324506 353.4088007 -129.39490894 346.59664855 -129 338.6875 C-130.155 338.501875 -131.31 338.31625 -132.5 338.125 C-148.07861124 334.59776727 -166.68867876 325.0946923 -175.4921875 311.359375 C-179.0985694 305.04311292 -180.15768692 300.20336612 -180.16796875 292.921875 C-180.174049 291.58690224 -180.174049 291.58690224 -180.18025208 290.22496033 C-180.18978321 287.29577127 -180.18963596 284.3667026 -180.1875 281.4375 C-180.1882251 280.4423941 -180.1889502 279.44728821 -180.18969727 278.42202759 C-180.1880699 258.13264146 -179.29680985 237.93118454 -178 217.6875 C-172.3046875 219.5546875 -172.3046875 219.5546875 -169.5625 220.75 C-163.11007621 223.11064285 -156.3382934 222.81341635 -149.5625 222.75 C-148.17901367 222.74323242 -148.17901367 222.74323242 -146.76757812 222.73632812 C-144.51164952 222.72463938 -142.25586033 222.70825455 -140 222.6875 C-139.83177734 222.03305908 -139.66355469 221.37861816 -139.49023438 220.7043457 C-136.16560245 208.11691984 -129.46496859 197.63614684 -119.25 189.49609375 C-114.7021201 186.96524232 -110.37772532 186.54658348 -105.27734375 185.91015625 C-99.18134294 185.02683592 -95.17893184 182.92868703 -90.8125 178.4375 C-86.97098691 172.60899738 -85.78375343 167.36423305 -85.5859375 160.53271484 C-85.2167758 149.92141349 -85.2167758 149.92141349 -81.78125 146.4375 C-79 145.0625 -79 145.0625 -76.02734375 143.92578125 C-72.56880897 142.51112896 -70.33879602 140.73752823 -67.5625 138.25 C-66.78003906 137.55003906 -65.99757813 136.85007812 -65.19140625 136.12890625 C-58.36338069 128.5219259 -57.70973934 120.48866232 -57 110.6875 C-56.9479541 110.01493164 -56.8959082 109.34236328 -56.84228516 108.64941406 C-56.30686183 100.7900955 -56.51786048 94.77906984 -60.80859375 88.03125 C-63.30746478 83.11543813 -63.07199954 77.58094724 -63.18920898 72.17871094 C-63.41003293 63.81045894 -64.53484751 57.91816628 -69 50.6875 C-70.92872459 46.09529859 -71.97488941 41.63087862 -71 36.6875 C-69.2988562 33.61053074 -66.98958683 31.43822104 -64.1875 29.3125 C-60.73637583 28.32646452 -57.51296684 28.02269552 -54 28.6875 C-49.14631989 32.13900585 -47.76149884 36.21758255 -46 41.6875 C-44.15672479 38.92258718 -42.72450916 36.12816295 -41.28491211 33.14038086 C-38.07489505 26.50149916 -34.9181875 20.24833067 -30 14.6875 C-29.29037109 13.80578125 -29.29037109 13.80578125 -28.56640625 12.90625 C-21.0860235 4.39987959 -11.15136661 0.07644571 0 0 Z " fill="#AEC36E" transform="translate(200,129.3125)"/>
<path d="M0 0 C10.33151931 8.01332649 10.33151931 8.01332649 14.44140625 12.61328125 C17.38525242 15.23249275 21.18507379 16.64590299 24.73046875 18.30664062 C34.21136885 22.86437526 39.27045969 29.47108486 43.375 39 C46.87390186 49.46730303 46.15192412 60.58793709 41.90625 70.65625 C39.4455143 77.02022163 41.15117291 82.64301299 43.81640625 88.68359375 C47.13895129 95.1861324 51.63730797 98.35221493 57.6953125 102.19140625 C61.27366821 104.99950573 62.79899526 107.71859476 63.5 112.1875 C62.83542806 117.25486101 60.72284955 123.27715045 57 127 C56.6231035 134.34128833 59.32462768 139.52923239 64 145 C66.21340847 147.1597965 68.48021359 149.19133663 70.8515625 151.17578125 C76.05778684 155.59633901 81.11202796 160.89622371 82 168 C82.22580645 174.5483871 82.22580645 174.5483871 81 177 C78.37264802 177.26125082 75.82127489 177.42165499 73.1875 177.5 C66.73050042 177.46492393 66.73050042 177.46492393 61 180 C59.08893355 182.860552 58.91332086 185.07192361 58.75 188.4375 C58.2890625 190.80859375 58.2890625 190.80859375 57 193 C52.50906964 195.40383552 47.93586162 196.72328753 43 198 C42.01386719 198.29970703 42.01386719 198.29970703 41.0078125 198.60546875 C33.73817222 200.03393892 24.13924147 200.45499511 17.703125 196.35546875 C17.14109375 195.90816406 16.5790625 195.46085938 16 195 C15.37609375 194.52175781 14.7521875 194.04351562 14.109375 193.55078125 C8.95869223 188.7355421 7.88910052 183.21178461 6.54443359 176.55834961 C3.79989516 163.53521795 -4.57536683 152.80082451 -12 142 C-10.62936545 139.25873089 -9.30420982 139.27974102 -6.4375 138.3125 C5.70477791 133.53492758 12.71840818 122.66387341 17.796875 111.0625 C25.34320471 92.59528138 29.66408702 68.11441624 22 49 C19.2355412 42.74909315 16.29131912 38.14565956 10 35 C-3.37363574 33.65652974 -12.65535922 35.62177004 -23.5859375 43.9765625 C-33.44270969 52.95867231 -38.72965212 65.64062778 -43 78 C-45.28977292 74.56534063 -46.50135698 71.13998339 -47.90234375 67.27734375 C-48.91033367 64.69239322 -48.91033367 64.69239322 -52 63 C-56.85532856 62.5224267 -59.04398784 62.48658606 -63.375 64.8125 C-66.66746032 67.55621693 -67.88223155 69.09150054 -68.4375 73.375 C-68.29062878 80.54498583 -64.92643568 88.11034647 -61 94 C-60.74570456 96.89550038 -60.58522831 99.72489425 -60.5 102.625 C-60.08334751 114.11177281 -60.08334751 114.11177281 -55.875 124.625 C-52.69230958 130.63410953 -53.56250906 137.41272544 -54 144 C-54.04398926 144.69851074 -54.08797852 145.39702148 -54.13330078 146.11669922 C-54.71526244 154.27726125 -55.38517086 161.63452525 -61 168 C-61.48210937 168.5878125 -61.96421875 169.175625 -62.4609375 169.78125 C-67.33148785 175.19825234 -73.52577594 178.76780013 -80 182 C-80.66 182 -81.32 182 -82 182 C-81.94779297 183.19882812 -81.94779297 183.19882812 -81.89453125 184.421875 C-81.64623641 194.49555157 -82.17414291 205.00399599 -89 213 C-94.45364143 218.37831489 -99.28336687 220.05270432 -106.8125 220.75 C-113.46344039 221.64652174 -117.29982025 223.26656426 -122 228 C-122.75796875 228.68642578 -122.75796875 228.68642578 -123.53125 229.38671875 C-129.84057298 235.7799423 -134.04966558 245.54197458 -137.046875 253.9296875 C-137.36140625 254.61289062 -137.6759375 255.29609375 -138 256 C-148.97306178 259.65768726 -163.75084683 257.30797031 -173.875 252.3125 C-178.54202045 249.5702959 -181.48641727 247.28230215 -183 242 C-185.20818102 232.10233757 -183.3438248 222.74658315 -178.4375 213.9375 C-174.63303001 208.04151789 -169.80065138 203.08530539 -165 198 C-163.84619145 196.69450541 -162.69951828 195.38264382 -161.5625 194.0625 C-159.08376454 191.19022123 -156.5102419 188.42790433 -153.89770508 185.67700195 C-145.94115542 177.2202579 -139.94579991 170.01574307 -140 158 C-140.56103318 153.87467452 -141.48669575 149.86337413 -142.4375 145.8125 C-147.39339321 122.95209586 -147.39339321 122.95209586 -143.69921875 115.30859375 C-142.04768556 113.06478659 -140.49065731 111.53116773 -138.3125 109.8125 C-120.3167268 94.47668597 -112.25381387 71.99795448 -107 49.6875 C-102.58805869 31.12727171 -93.96259709 16.05069648 -77.4375 5.6875 C-76.77234375 5.29046875 -76.1071875 4.8934375 -75.421875 4.484375 C-72.90036259 2.93893191 -70.45678943 1.29224995 -68.00195312 -0.35620117 C-46.52933498 -14.63179405 -21.43547943 -15.10980316 0 0 Z " fill="#B53016" transform="translate(198,96)"/>
<path d="M0 0 C3.78784879 3.44927013 5.87359606 8.24649015 7.75 12.9375 C7.75 13.5975 7.75 14.2575 7.75 14.9375 C8.63751953 14.97617188 8.63751953 14.97617188 9.54296875 15.015625 C14.7634468 15.39034121 18.10218521 15.86053053 21.75 19.9375 C25.80321284 26.79091302 25.1865486 34.05815106 25.1484375 41.8125 C25.15046155 43.26546372 25.15337574 44.71842645 25.15713501 46.17138672 C25.16154284 49.20745576 25.15517745 52.2432589 25.14111328 55.27929688 C25.12402199 59.15617034 25.13387152 63.03242059 25.15183067 66.90927124 C25.16271049 69.90686677 25.15920305 72.9043164 25.1514473 75.9019165 C25.14945686 77.33075028 25.1518636 78.75959762 25.15888596 80.18841553 C25.21252339 94.16697315 25.21252339 94.16697315 21.75 99.9375 C17.25862803 104.20430337 13.95196738 105.06625854 7.87825012 105.021698 C6.65195389 105.01559006 5.42565765 105.00948212 4.16220093 105.00318909 C2.80059812 104.99154923 1.43899534 104.97990668 0.07739258 104.96826172 C-1.35519589 104.95983422 -2.78778795 104.95200073 -4.22038269 104.94471741 C-6.51168547 104.9329567 -8.80297888 104.92075418 -11.09426916 104.90674853 C-16.7902694 104.87213646 -22.48610534 104.85601936 -28.1822052 104.85110474 C-29.00997394 104.85037205 -29.83774269 104.84963936 -30.69059533 104.84888446 C-34.1071876 104.84621881 -37.52377997 104.84417217 -40.94037282 104.8424089 C-50.61906077 104.83664047 -60.29694075 104.81315157 -69.9753418 104.73535156 C-77.66705553 104.67364293 -85.357775 104.65140597 -93.04971772 104.67416394 C-97.11432002 104.68474008 -101.17674866 104.67628125 -105.2410183 104.61983871 C-128.08319189 103.8707171 -128.08319189 103.8707171 -147.6464386 114.38015747 C-148.50561386 115.22408051 -149.36478912 116.06800354 -150.25 116.9375 C-153.25 118.9375 -153.25 118.9375 -158.25 118.9375 C-158.745 112.0075 -158.745 112.0075 -159.25 104.9375 C-161.27125 105.02 -163.2925 105.1025 -165.375 105.1875 C-170.88927751 105.17552546 -174.15095486 104.93144142 -178.25 100.9375 C-181.75533044 96.46001477 -182.75093414 93.57612623 -182.75170898 87.90991211 C-182.75711197 87.23431747 -182.76251495 86.55872284 -182.76808167 85.86265564 C-182.78051245 83.6462623 -182.76411949 81.43118238 -182.74609375 79.21484375 C-182.74624885 77.66597933 -182.74773972 76.11711452 -182.75050354 74.56825256 C-182.75188493 71.3294245 -182.73937231 68.09104069 -182.71655273 64.85229492 C-182.68814468 60.70726404 -182.69091515 56.56296945 -182.70364285 52.41788387 C-182.71060706 49.22219079 -182.70280274 46.02666702 -182.69038582 42.83099556 C-182.68588018 41.30282809 -182.68552675 39.77464239 -182.68945122 38.24647331 C-182.69237147 36.10916925 -182.67582041 33.97287018 -182.65405273 31.83569336 C-182.64864975 30.62135117 -182.64324677 29.40700897 -182.63768005 28.15586853 C-182.05793761 23.34307302 -180.28160037 20.84329545 -176.6875 17.6875 C-173.11061016 15.11947652 -171.32538154 14.81313523 -166.96029663 14.81724548 C-165.83846481 14.81587082 -164.716633 14.81449615 -163.56080627 14.81307983 C-162.3243486 14.81667511 -161.08789093 14.82027039 -159.81396484 14.82397461 C-158.51644791 14.82382858 -157.21893097 14.82368256 -155.88209534 14.8235321 C-152.31826408 14.8232445 -148.75446629 14.82913525 -145.19064283 14.83610606 C-141.46837501 14.84234575 -137.74610647 14.84294389 -134.02383423 14.84413147 C-126.97257432 14.84724296 -119.92132987 14.85545391 -112.87007678 14.86548096 C-104.84358307 14.87664773 -96.81708863 14.88215397 -88.79058909 14.88717639 C-72.27705034 14.89763667 -55.76352714 14.91523261 -39.25 14.9375 C-39.05881592 14.32624268 -38.86763184 13.71498535 -38.6706543 13.08520508 C-38.41195557 12.27978271 -38.15325684 11.47436035 -37.88671875 10.64453125 C-37.50713013 9.44920776 -37.50713013 9.44920776 -37.11987305 8.22973633 C-34.8490403 2.24577656 -30.76310496 -0.69694381 -25.21484375 -3.30078125 C-16.28323337 -6.76333398 -7.90612592 -5.01734914 0 0 Z " fill="#FAAC3D" transform="translate(473.25,128.0625)"/>
<path d="M0 0 C0.77268455 -0.00538554 1.5453691 -0.01077108 2.34146833 -0.01631981 C4.92088388 -0.03058448 7.49978516 -0.02349952 10.07922363 -0.01637268 C11.93242301 -0.02207698 13.78561888 -0.02904147 15.6388092 -0.03717041 C20.66560665 -0.05510891 25.69222961 -0.05393228 30.71904945 -0.04822803 C34.91651717 -0.04513762 39.1139513 -0.05122689 43.31141424 -0.05726677 C53.2130497 -0.07131225 63.11459888 -0.0697501 73.01623535 -0.05836487 C83.23078566 -0.04687938 93.44507355 -0.06096655 103.65958929 -0.08776134 C112.43172477 -0.10991077 121.20377782 -0.11655755 129.97593927 -0.11068493 C135.21424297 -0.10731286 140.45237839 -0.10974729 145.69065857 -0.12693596 C150.61554666 -0.14239124 155.5400455 -0.13846525 160.46491814 -0.11963081 C162.27169151 -0.11594122 164.07849364 -0.11906418 165.88524055 -0.1295166 C168.35306112 -0.14270299 170.81958853 -0.1312009 173.28735352 -0.11352539 C174.00117298 -0.1231304 174.71499244 -0.1327354 175.45044279 -0.14263147 C180.45692316 -0.06892239 183.26391526 1.28998757 187.14367676 4.38768005 C191.17251359 8.83329311 191.26986895 12.94289604 191.30480957 18.78929138 C191.31441711 20.08776505 191.32402466 21.38623871 191.33392334 22.72406006 C191.33877189 24.13927535 191.34305058 25.55449268 191.34680176 26.9697113 C191.35255828 28.42696127 191.35831595 29.88421123 191.36407471 31.34146118 C191.37456851 34.39536388 191.38042166 37.44924039 191.38391113 40.50315857 C191.38939027 44.40359719 191.41341242 48.30368577 191.44188309 52.20401478 C191.46056904 55.21444692 191.46571824 58.22479577 191.46724701 61.23528099 C191.47026101 62.67250671 191.47824698 64.1097314 191.49143219 65.5468998 C191.62432434 81.14623518 191.62432434 81.14623518 186.71398926 87.12986755 C181.56570231 91.16501138 177.47723374 91.52159799 171.08956909 91.4584198 C169.87327316 91.44942154 168.65697723 91.44042328 167.40382385 91.43115234 C166.75218828 91.42394228 166.10055271 91.41673222 165.42917061 91.40930367 C163.32910251 91.38610339 161.22905962 91.36896353 159.12892151 91.35342407 C156.86344506 91.33665181 154.59797746 91.31954155 152.33251739 91.30067301 C146.70093349 91.25435361 141.06953046 91.22916202 135.43777466 91.21659851 C134.61798169 91.21476397 133.79818873 91.21292943 132.95355356 91.2110393 C129.57139176 91.20394473 126.1892292 91.19764062 122.80706477 91.19194174 C113.23999072 91.17517505 103.67411367 91.13772961 94.10754395 91.03465271 C86.49667258 90.95278126 78.88716203 90.91787344 71.27585089 90.936167 C67.25718986 90.94413638 63.24162225 90.92990375 59.22352219 90.85855865 C41.11081667 90.55203324 26.75135715 90.86040775 12.91849709 104.21738052 C11.14367676 105.38768005 11.14367676 105.38768005 6.14367676 105.38768005 C5.64867676 98.95268005 5.64867676 98.95268005 5.14367676 92.38768005 C4.20266113 92.2897113 3.26164551 92.19174255 2.29211426 92.09080505 C-10.58391805 90.54461484 -10.58391805 90.54461484 -14.85632324 86.38768005 C-17.53992705 81.90740373 -18.23716395 78.58632654 -18.26037598 73.39183044 C-18.26723923 72.71944839 -18.27410248 72.04706635 -18.28117371 71.35430908 C-18.2993659 69.14776555 -18.29561537 66.94193821 -18.28991699 64.7353363 C-18.29448253 63.19126151 -18.29978922 61.64718874 -18.30580139 60.1031189 C-18.31471763 56.87277451 -18.31232657 53.64267755 -18.30236816 50.41233826 C-18.29088142 46.28534492 -18.31109218 42.15920762 -18.3402853 38.0323267 C-18.35868648 34.84513989 -18.35834709 31.65815673 -18.35264778 28.4709301 C-18.35249504 26.94997901 -18.35850042 25.42901371 -18.37093925 23.90811348 C-18.4777161 8.71279922 -18.4777161 8.71279922 -13.85632324 3.38768005 C-9.23654013 0.52657954 -5.3190438 -0.04478401 0 0 Z " fill="#899AE9" transform="translate(258.8563232421875,13.612319946289063)"/>
<path d="M0 0 C1.05840088 -0.01051392 1.05840088 -0.01051392 2.13818359 -0.02124023 C8.25941781 0.19388534 11.94800934 2.57515667 16.125 6.875 C26.0867353 21.81760295 25.95668925 41.23095184 22.87084961 58.37109375 C19.46127995 74.72897003 12.42521457 91.52209847 -0.87109375 102.3203125 C-4.6549933 104.75033973 -8.74473512 106.28361138 -13 107.6875 C-12.25343232 109.06436662 -11.50253972 110.43888835 -10.75 111.8125 C-10.29753906 112.64394531 -9.84507812 113.47539062 -9.37890625 114.33203125 C-7.98232315 116.85983897 -7.98232315 116.85983897 -5.6875 119.5 C-2.74260344 125.0625824 -3.06858753 131.16576884 -4.66015625 137.18359375 C-8.09845698 145.77190338 -14.56946509 152.78622351 -23 156.58984375 C-31.45635717 159.68955575 -44.19910421 160.96719371 -52.5625 157.125 C-54.3046875 156.01171875 -54.3046875 156.01171875 -56 154.6875 C-56.68320313 154.17832031 -57.36640625 153.66914063 -58.0703125 153.14453125 C-62.85900529 149.28353725 -66.08554846 145.08203771 -69 139.6875 C-68.52949219 139.25179687 -68.05898437 138.81609375 -67.57421875 138.3671875 C-66.95160156 137.77164063 -66.32898438 137.17609375 -65.6875 136.5625 C-64.76517578 135.69238281 -64.76517578 135.69238281 -63.82421875 134.8046875 C-56.05869429 125.79202314 -56.48127916 110.5284802 -56.6015625 99.1015625 C-57.10700191 94.77064048 -58.48502221 91.68541378 -60.80859375 88.03125 C-63.30746478 83.11543813 -63.07199954 77.58094724 -63.18920898 72.17871094 C-63.41003293 63.81045894 -64.53484751 57.91816628 -69 50.6875 C-70.92872459 46.09529859 -71.97488941 41.63087862 -71 36.6875 C-69.2988562 33.61053074 -66.98958683 31.43822104 -64.1875 29.3125 C-60.73637583 28.32646452 -57.51296684 28.02269552 -54 28.6875 C-49.14631989 32.13900585 -47.76149884 36.21758255 -46 41.6875 C-44.15672479 38.92258718 -42.72450916 36.12816295 -41.28491211 33.14038086 C-38.07489505 26.50149916 -34.9181875 20.24833067 -30 14.6875 C-29.52691406 14.0996875 -29.05382812 13.511875 -28.56640625 12.90625 C-21.0860235 4.39987959 -11.15136661 0.07644571 0 0 Z " fill="#FECCCD" transform="translate(200,129.3125)"/>
<path d="M0 0 C1.10577393 0.00108765 1.10577393 0.00108765 2.23388672 0.00219727 C3.00587402 0.00227783 3.77786133 0.0023584 4.57324219 0.00244141 C16.04084003 0.10701251 27.50835392 0.98151985 38.93212891 1.94458008 C40.7164873 2.08789974 42.50407009 2.20443396 44.29345703 2.25512695 C50.57788289 2.58325461 54.62853198 5.93480483 59.48388672 9.56469727 C61.25688675 10.84785404 63.03032982 12.13039884 64.80419922 13.41235352 C65.67850586 14.05188965 66.5528125 14.69142578 67.45361328 15.3503418 C71.04698986 17.96250883 74.69435964 20.49123353 78.35888672 23.00219727 C78.99632813 23.44072021 79.63376953 23.87924316 80.29052734 24.33105469 C86.76174818 28.76218167 93.35701473 32.99612983 99.98388672 37.18969727 C100.00966797 36.42786133 100.03544922 35.66602539 100.06201172 34.88110352 C100.47704461 27.32561841 101.41223217 20.38169182 106.46826172 14.44750977 C107.98388672 13.18969727 107.98388672 13.18969727 110.35888672 13.12719727 C114.03642418 14.61572433 116.12026586 16.76852467 117.98388672 20.18969727 C118.93880607 23.49253687 119.53292051 26.78389278 119.98388672 30.18969727 C120.63873047 29.67020508 121.29357422 29.15071289 121.96826172 28.61547852 C130.53078093 22.07264957 139.6075445 16.10828755 150.79638672 16.77172852 C155.5010716 17.67065938 158.08085043 20.28666097 161.35888672 23.56469727 C164.3931798 30.33350492 164.24468583 37.57903669 161.80810547 44.55688477 C155.40124423 57.83415276 145.28659141 66.2368191 131.84716797 72.21704102 C122.48074483 75.39881368 113.50248697 75.5519231 103.73388672 75.50219727 C102.9765625 75.50004211 102.21923828 75.49788696 101.43896484 75.4956665 C89.06125602 75.43919647 77.13384848 74.6945472 64.98388672 72.18969727 C63.94264648 71.98038574 62.90140625 71.77107422 61.82861328 71.55541992 C38.60433975 66.79811367 12.61665592 60.16709959 -1.84423828 39.58813477 C-4.92046725 34.16053537 -6.14298595 29.86993217 -6.14892578 23.58813477 C-6.15021484 22.29391602 -6.15150391 20.99969727 -6.15283203 19.66625977 C-6.1507373 18.99369141 -6.14864258 18.32112305 -6.14648438 17.62817383 C-6.14111478 15.56527411 -6.14644689 13.50259038 -6.15283203 11.43969727 C-6.15154297 10.14805664 -6.15025391 8.85641602 -6.14892578 7.52563477 C-6.14779785 6.33502441 -6.14666992 5.14441406 -6.14550781 3.91772461 C-5.92655724 -0.6984145 -4.16972363 0.0452899 0 0 Z " fill="#FECDCE" transform="translate(26.01611328125,400.810302734375)"/>
<path d="M0 0 C1.14045021 0.00137466 1.14045021 0.00137466 2.30393982 0.0027771 C3.90508296 0.0087984 5.5062156 0.02450028 7.10717773 0.04931641 C9.55429685 0.08587331 11.99990161 0.09033514 14.44726562 0.08984375 C16.00652346 0.09967427 17.56577109 0.11133099 19.125 0.125 C20.21887779 0.12833847 20.21887779 0.12833847 21.33485413 0.13174438 C25.09103927 0.20178503 27.82660304 0.40610809 30.99609375 2.4609375 C34.83451221 9.17666006 35.40342038 18.21138146 36.73828125 25.71484375 C36.99039776 27.10192179 37.24318956 28.48887723 37.49661255 29.87571716 C38.16111142 33.51999335 38.81832331 37.16554113 39.47338867 40.81152344 C40.63657787 47.28082617 41.81087003 53.7481163 42.98828125 60.21484375 C43.11521111 60.91335072 43.24214096 61.61185768 43.37291718 62.33153152 C45.21904046 72.4735851 47.19263363 82.58254103 49.35421753 92.66273499 C50.69350114 98.90842084 51.88663808 105.17032478 52.99609375 111.4609375 C54.00283142 111.4694574 54.00283142 111.4694574 55.02990723 111.47814941 C57.74878389 111.50752236 60.46546423 111.57865011 63.18359375 111.6484375 C64.6231543 111.65713867 64.6231543 111.65713867 66.09179688 111.66601562 C70.826277 111.81345618 73.26501159 111.91239883 77.140625 114.8203125 C79.4102473 118.05034339 79.65472566 119.59147502 78.99609375 123.4609375 C77.2162497 126.5968532 76.47301168 127.30196486 72.99609375 128.4609375 C70.17773309 128.5677444 67.3837391 128.61819726 64.56494141 128.62207031 C63.70446701 128.62703522 62.84399261 128.63200012 61.95744324 128.63711548 C59.10833947 128.65173123 56.25929136 128.65853786 53.41015625 128.6640625 C51.43102008 128.6698141 49.45188393 128.67557183 47.4727478 128.68133545 C43.32167298 128.69184353 39.17061751 128.69768757 35.01953125 128.70117188 C29.70083926 128.70665852 24.38240302 128.73069105 19.06379128 128.75914383 C14.97514091 128.77776768 10.88655221 128.78297566 6.79786301 128.78450775 C4.83705623 128.78753499 2.87625056 128.79556591 0.91548538 128.80869293 C-1.82786275 128.82574929 -4.57058518 128.82387428 -7.31396484 128.81738281 C-8.12349106 128.8265976 -8.93301727 128.83581238 -9.76707458 128.8453064 C-14.81601424 128.80788504 -18.36180173 128.10304202 -22.00390625 124.4609375 C-22.58466131 117.37572581 -22.58466131 117.37572581 -20.68041992 114.3762207 C-16.40630611 111.31771274 -11.88416934 111.78255285 -6.75390625 111.7109375 C-5.20703125 111.66646484 -5.20703125 111.66646484 -3.62890625 111.62109375 C-1.0871613 111.55048972 1.45367158 111.49774741 3.99609375 111.4609375 C-1.52944927 79.44335988 -1.52944927 79.44335988 -7.25390625 47.4609375 C-7.49569651 46.13053561 -7.73747725 44.80013199 -7.97924805 43.46972656 C-9.05675546 37.56127531 -10.15351551 31.6577978 -11.296875 25.76171875 C-11.4918457 24.74013672 -11.68681641 23.71855469 -11.88769531 22.66601562 C-12.24146214 20.81794273 -12.60329676 18.97138397 -12.97558594 17.12695312 C-13.82147099 12.68113867 -14.50198762 8.85230907 -13.00390625 4.4609375 C-9.00253785 0.30139535 -5.52513647 -0.10918441 0 0 Z " fill="#3A3A3A" transform="translate(323.00390625,366.5390625)"/>
<path d="M0 0 C2.45296711 2.45296711 2.63796718 4.54281219 3.29199219 7.86645508 C5.24657904 18.24584251 5.24657904 18.24584251 12 26 C12.54011719 26.42539062 13.08023438 26.85078125 13.63671875 27.2890625 C19.92982584 31.30245401 27.83310406 31.03196611 35 30 C39.37694938 28.99483691 43.60269399 27.59226266 47.83203125 26.09375 C51 25 51 25 53 25 C53.03738281 24.40832031 53.07476562 23.81664062 53.11328125 23.20703125 C53.50819378 18.46033751 53.88294879 14.80972926 57 11 C60.66250649 8.46713406 64.47289851 8.76989165 68.75 8.875 C69.44738281 8.88402344 70.14476562 8.89304687 70.86328125 8.90234375 C72.57566958 8.92580112 74.28788004 8.96166896 76 9 C76 9.33 76 9.66 76 10 C74.02 10.33 72.04 10.66 70 11 C70.7734375 11.99 70.7734375 11.99 71.5625 13 C74.94621326 20.06166245 70.62127242 30.47652687 68.9375 37.75 C68.46363335 39.81904058 67.99136601 41.88844222 67.51919556 43.95787048 C67.18853368 45.40690892 66.85745178 46.85585156 66.52597046 48.30470276 C63.78297682 60.30238949 61.13293346 72.32108053 58.47502136 84.33784485 C57.67326657 87.96250046 56.86990437 91.58677679 56.06152344 95.20996094 C52.78487769 109.89656719 49.63530822 124.59378655 46.8125 139.375 C38.86380409 180.94264314 38.86380409 180.94264314 33.55859375 184.75390625 C30.34938428 186.31686475 28.52828402 186.58804734 25 186 C22.125 184 22.125 184 20 181 C19.35028715 173.66508385 21.07973828 166.7679321 22.625 159.625 C23.03322998 157.69515259 23.03322998 157.69515259 23.44970703 155.72631836 C25.38348948 146.62526287 27.46421576 137.5597687 29.59472656 128.50292969 C33.35223587 112.4000182 36.63581253 96.18870656 40 80 C39.01 80.33 38.02 80.66 37 81 C28.90026459 81.9433968 22.70722874 80.7007928 16 76 C3.92294428 65.59442763 1.45640249 49.0659063 0 34 C-0.1182078 31.25867631 -0.11781477 28.52469719 -0.09765625 25.78125 C-0.0962413 25.03790405 -0.09482635 24.29455811 -0.09336853 23.52868652 C-0.08783109 21.18574771 -0.07529091 18.84290927 -0.0625 16.5 C-0.05747689 14.89843889 -0.05291542 13.29687627 -0.04882812 11.6953125 C-0.03788227 7.79683712 -0.02066196 3.8984355 0 0 Z " fill="#3B3A3A" transform="translate(202,264)"/>
<path d="M0 0 C6.55631199 4.52637693 12.81304928 11.46636152 15.28125 19.1640625 C17.27526656 30.78989121 16.63110272 42.40569475 9.94140625 52.359375 C4.01728862 59.71763657 -3.9500564 65.51270807 -13.42822266 67.06689453 C-21.91357231 67.88757497 -29.92796577 67.36328554 -37.28125 62.71484375 C-38.291875 62.15796875 -39.3025 61.60109375 -40.34375 61.02734375 C-48.81488483 54.35857804 -54.51036577 46.43853157 -56.28125 35.71484375 C-57.29502162 25.04531293 -54.71802379 15.83566426 -47.91015625 7.4921875 C-34.97978654 -6.61648928 -16.98850032 -9.57057638 0 0 Z " fill="#4269C4" transform="translate(312.28125,28.28515625)"/>
<path d="M0 0 C8.18062033 5.80108628 13.93063526 13.2492097 16.26171875 23.10546875 C18.04419747 33.93361049 15.93856007 43.33444658 9.765625 52.48046875 C3.57385066 59.97814458 -4.59734749 65.19380314 -14.3203125 66.64453125 C-24.44822387 67.60684059 -32.89475898 65.42473123 -41.1328125 59.39453125 C-49.34751757 52.4707084 -54.32069627 44.23040397 -55.73828125 33.47265625 C-56.21300396 22.74648904 -52.9668911 14.37180731 -46.0703125 6.20703125 C-41.94013635 1.92566729 -37.75151115 -0.97281647 -32.3203125 -3.35546875 C-31.3921875 -3.78859375 -30.4640625 -4.22171875 -29.5078125 -4.66796875 C-19.18886878 -6.89362328 -9.13253197 -5.33499763 0 0 Z " fill="#F9990E" transform="translate(361.3203125,157.35546875)"/>
<path d="M0 0 C-0.91596863 66.31410424 -0.91596863 66.31410424 -12 87 C-19.18836629 87.09296096 -26.30470545 86.8151648 -33.4765625 86.34375 C-34.52782318 86.27716187 -35.57908386 86.21057373 -36.66220093 86.14196777 C-39.9833302 85.93092973 -43.3041601 85.71553876 -46.625 85.5 C-48.89190863 85.35517963 -51.15883558 85.21064562 -53.42578125 85.06640625 C-58.9507368 84.71424662 -64.47545395 84.35852341 -70 84 C-70.16252449 72.15264195 -69.65103487 60.38926934 -69 48.5625 C-68.90328275 46.75197248 -68.80692641 44.94142565 -68.7109375 43.13085938 C-68.47810545 38.7536731 -68.24043646 34.37677488 -68 30 C-62.3046875 31.8671875 -62.3046875 31.8671875 -59.5625 33.0625 C-53.11007621 35.42314285 -46.3382934 35.12591635 -39.5625 35.0625 C-38.64017578 35.05798828 -37.71785156 35.05347656 -36.76757812 35.04882812 C-34.51164952 35.03713938 -32.25586033 35.02075455 -30 35 C-29.83177734 34.34555908 -29.66355469 33.69111816 -29.49023438 33.0168457 C-26.20515936 20.57918668 -19.37334794 8.95817273 -8.6875 1.4375 C-3.1011236 -1.5505618 -3.1011236 -1.5505618 0 0 Z " fill="#617F4D" transform="translate(90,317)"/>
<path d="M0 0 C0.43828125 0.38671875 0.8765625 0.7734375 1.328125 1.171875 C8.4355297 7.00803658 16.87107372 10.00474112 26 11 C27.90440029 10.78087444 29.80877511 10.56101249 31.7109375 10.32324219 C36.03817402 9.90253864 40.08230638 9.57320971 43.71289062 12.27441406 C48.958873 17.81403948 52.53768716 24.69617244 52.875 32.375 C51.83055476 43.04837191 46.31878077 50.62678025 38.1875 57.3125 C28.36082233 62.51485877 16.2982199 64.10271635 5.41015625 61.34375 C3.37326883 60.40799182 1.76529103 59.3788794 0 58 C-1.02480469 57.23623047 -1.02480469 57.23623047 -2.0703125 56.45703125 C-6.85900529 52.59603725 -10.08554846 48.39453771 -13 43 C-12.52949219 42.56429687 -12.05898437 42.12859375 -11.57421875 41.6796875 C-10.95160156 41.08414063 -10.32898438 40.48859375 -9.6875 39.875 C-9.07261719 39.29492188 -8.45773438 38.71484375 -7.82421875 38.1171875 C-3.71397025 33.34683486 -2.5529929 28.66357179 -1.875 22.5 C-1.79717285 21.81164062 -1.7193457 21.12328125 -1.63916016 20.4140625 C-0.89776017 13.62489026 -0.40475946 6.81700138 0 0 Z " fill="#FDA8AC" transform="translate(144,226)"/>
<path d="M0 0 C2.45296711 2.45296711 2.63796718 4.54281219 3.29199219 7.86645508 C5.24657904 18.24584251 5.24657904 18.24584251 12 26 C12.54011719 26.42539062 13.08023438 26.85078125 13.63671875 27.2890625 C20.5244957 31.68170116 29.61937852 31.16692228 37.34375 29.49169922 C42.30280078 28.21269079 47.15668637 26.65988717 52 25 C51.49463318 33.21761436 50.05960393 40.99257948 48.1875 49 C47.6462625 51.37089465 47.10590379 53.74199007 46.56640625 56.11328125 C46.30102051 57.2729541 46.03563477 58.43262695 45.76220703 59.62744141 C44.66761395 64.47071775 43.63800236 69.32659712 42.625 74.1875 C42.45766357 74.98865234 42.29032715 75.78980469 42.11791992 76.61523438 C41.74390339 78.40986991 41.37170485 80.20488424 41 82 C40.67 81.34 40.34 80.68 40 80 C39.01 80.33 38.02 80.66 37 81 C28.90026459 81.9433968 22.70722874 80.7007928 16 76 C3.92294428 65.59442763 1.45640249 49.0659063 0 34 C-0.1182078 31.25867631 -0.11781477 28.52469719 -0.09765625 25.78125 C-0.0962413 25.03790405 -0.09482635 24.29455811 -0.09336853 23.52868652 C-0.08783109 21.18574771 -0.07529091 18.84290927 -0.0625 16.5 C-0.05747689 14.89843889 -0.05291542 13.29687627 -0.04882812 11.6953125 C-0.03788227 7.79683712 -0.02066196 3.8984355 0 0 Z " fill="#617E4D" transform="translate(202,264)"/>
<path d="M0 0 C4.82492012 4.48798435 7.99606282 10.90917603 8.25 17.5 C7.8214745 24.05528198 5.96311316 30.69741217 1.375 35.5859375 C-4.79947544 40.7214387 -11.27954675 42.85529127 -19.28515625 42.484375 C-25.83515722 41.27620618 -31.18152948 37.7427521 -35.25 32.5 C-38.93938695 26.54222672 -40.3194568 19.84956817 -39.25 12.9375 C-36.8618846 5.58432608 -33.03950108 0.65030556 -26.25 -3.0625 C-16.8318031 -6.69759354 -8.36637305 -5.30942905 0 0 Z " fill="#B63217" transform="translate(473.25,128.0625)"/>
<path d="M0 0 C0.88988113 -0.00861557 1.77976227 -0.01723114 2.6966095 -0.02610779 C5.63796076 -0.04880882 8.57836242 -0.04202103 11.51977539 -0.03295898 C13.56474593 -0.03819297 15.60971404 -0.04446861 17.65467834 -0.05174255 C21.94112505 -0.06215459 26.22723996 -0.05757402 30.51367188 -0.04296875 C36.00636635 -0.02578533 41.49801434 -0.04926686 46.990592 -0.08445835 C51.21398347 -0.10642158 55.43712416 -0.10499335 59.66055489 -0.09669304 C61.68555409 -0.09587283 63.71057159 -0.10274956 65.7355175 -0.11746407 C68.56782151 -0.13488868 71.39824052 -0.12038471 74.23046875 -0.09765625 C75.06647614 -0.10934845 75.90248352 -0.12104065 76.76382446 -0.13308716 C81.050676 -0.06311036 82.70542501 0.16550611 86.20802307 2.88148499 C88.17993164 5.53344727 88.17993164 5.53344727 88.67993164 8.59594727 C88.13248356 11.81220474 87.47236254 13.24101637 85.17993164 15.53344727 C81.35049396 16.80992649 77.73964842 16.68909659 73.7487793 16.69458008 C72.4580677 16.70202744 72.4580677 16.70202744 71.14128113 16.70962524 C68.29217736 16.72424099 65.44312925 16.73104763 62.59399414 16.73657227 C60.61485797 16.74232386 58.63572183 16.7480816 56.65658569 16.75384521 C52.50551087 16.7643533 48.3544554 16.77019734 44.20336914 16.77368164 C38.88467715 16.77916828 33.56624091 16.80320082 28.24762917 16.83165359 C24.1589788 16.85027744 20.0703901 16.85548543 15.9817009 16.85701752 C14.02089412 16.86004476 12.06008845 16.86807568 10.09932327 16.8812027 C7.35597514 16.89825906 4.61325271 16.89638404 1.86987305 16.88989258 C1.06034683 16.89910736 0.25082062 16.90832214 -0.58323669 16.91781616 C-5.63217635 16.8803948 -9.17796384 16.17555178 -12.82006836 12.53344727 C-13.40734505 5.3686716 -13.40734505 5.3686716 -11.3447113 2.43519592 C-7.73935958 -0.28062289 -4.33807967 -0.03378128 0 0 Z " fill="#504F4E" transform="translate(313.820068359375,478.466552734375)"/>
<path d="M0 0 C3.70390021 2.02666238 5.65363011 3.48044516 8 7 C8.06978475 8.88213576 8.13203228 10.76551378 8.12402344 12.64892578 C7.9873505 19.30624929 7.9873505 19.30624929 10.6640625 25.17578125 C12.715571 26.60108022 14.81782327 27.7881345 17 29 C19.08093235 30.90145799 20.40430877 32.63220012 22 35 C21.70693798 38.58822281 20.14623995 40.18979052 17.5 42.5 C9.52449879 49.04075496 2.96291373 50.69369372 -7.41015625 50.3828125 C-12.29841645 49.86153992 -15.86940213 48.6168505 -20 46 C-20.75410156 45.52949219 -21.50820313 45.05898437 -22.28515625 44.57421875 C-27.66244709 40.90400437 -27.66244709 40.90400437 -28.91015625 37.5625 C-29 35 -29 35 -27.77734375 32.90234375 C-26.86662109 31.92974609 -26.86662109 31.92974609 -25.9375 30.9375 C-25.29554688 30.23753906 -24.65359375 29.53757812 -23.9921875 28.81640625 C-22 27 -22 27 -18.5625 25.375 C-15.65767985 23.22397671 -15.65767985 23.22397671 -15.76953125 19.859375 C-15.84011732 17.3601054 -15.92880305 14.86128443 -16.03515625 12.36328125 C-15.98694396 7.7509724 -15.21940679 6.21940679 -12 3 C-8.07324125 -0.18385844 -4.98824428 -0.6125914 0 0 Z " fill="#255299" transform="translate(296,34)"/>
<path d="M0 0 C3.46103369 2.07363656 5.69461926 4.08385777 7 8 C7.09416778 10.01906808 7.12991192 12.04124313 7.125 14.0625 C7.12886719 15.65771484 7.12886719 15.65771484 7.1328125 17.28515625 C7 20 7 20 6 22 C7.0209375 22.309375 7.0209375 22.309375 8.0625 22.625 C13.0664653 24.96728163 16.94334112 28.41501168 20 33 C19.80813242 35.95288893 19.35418888 37.55518316 17.50390625 39.87890625 C9.84610035 46.51978018 2.35193494 49.84153224 -7.91015625 49.4453125 C-16.03680707 48.27408849 -23.43165649 44.89322871 -28.91015625 38.69140625 C-30 37 -30 37 -30.25 34.4375 C-27.31590552 28.71601576 -23.53977874 25.20076105 -18 22 C-17.34 22 -16.68 22 -16 22 C-16.33 21.34 -16.66 20.68 -17 20 C-17.5099099 14.41606867 -17.73870063 9.55947912 -15.3125 4.4375 C-10.60293475 -0.52663635 -6.75253153 -2.18929733 0 0 Z " fill="#E0860E" transform="translate(347,164)"/>
<path d="M0 0 C-9.39023957 6.26015972 -25.12952673 4.30859202 -36.03100586 4.26074219 C-38.92908712 4.25003109 -41.82654695 4.26068907 -44.72460938 4.2734375 C-72.55597155 4.29601897 -72.55597155 4.29601897 -79 0 C-55.04663249 -7.56087728 -24.13597486 -6.25747496 0 0 Z " fill="#456BC6" transform="translate(430,31)"/>
<path d="M0 0 C0.86625 0.33 1.7325 0.66 2.625 1 C8.5629676 2.74573789 14.87784069 2.1528417 21 2 C20.80545509 9.55187967 19.28541903 16.73869517 17.5625 24.0625 C17.34505127 25.00311279 17.12760254 25.94372559 16.90356445 26.9128418 C16.68917725 27.79883057 16.47479004 28.68481934 16.25390625 29.59765625 C16.06127197 30.39695557 15.8686377 31.19625488 15.67016602 32.01977539 C15 34 15 34 13 36 C4.41095475 27.41095475 1.9255582 14.61596895 0 3 C0 2.01 0 1.02 0 0 Z " fill="#FACBCB" transform="translate(221,342)"/>
<path d="M0 0 C0 0.66 0 1.32 0 2 C-13.08776057 7.78616783 -29.65765419 6.09035419 -43 2 C-43 1.34 -43 0.68 -43 0 C-29.51971244 -4.60302502 -13.39009303 -5.15948539 0 0 Z " fill="#456BC5" transform="translate(394,48)"/>
<path d="M0 0 C0 0.66 0 1.32 0 2 C-10.43660664 6.89215936 -27.26736827 6.81197128 -38.1875 3.5 C-39.46914055 3.02839121 -40.74626895 2.54145711 -42 2 C-42 1.34 -42 0.68 -42 0 C-29.55371933 -4.66735525 -12.33020383 -5.20470915 0 0 Z " fill="#FA9910" transform="translate(442,177)"/>
<path d="M0 0 C2.52950214 -0.17688476 5.05638049 -0.29078946 7.58984375 -0.39501953 C8.41460205 -0.45834473 9.23936035 -0.52166992 10.08911133 -0.58691406 C12.56332561 -0.65096976 14.42444901 -0.6153106 16.77734375 0.16748047 C19.01653905 2.58705719 20.44096052 5.16749696 21.77734375 8.16748047 C11.84206956 8.52755081 2.20780675 8.05915148 -7.66015625 6.79248047 C-8.67279541 6.66639404 -9.68543457 6.54030762 -10.72875977 6.41040039 C-11.67420654 6.28125244 -12.61965332 6.15210449 -13.59375 6.01904297 C-14.86109985 5.84622803 -14.86109985 5.84622803 -16.15405273 5.66992188 C-18.22265625 5.16748047 -18.22265625 5.16748047 -20.22265625 3.16748047 C-13.42715129 1.2798402 -7.01350067 0.52847775 0 0 Z " fill="#F99A11" transform="translate(420.22265625,156.83251953125)"/>
<path d="M0 0 C0.66 0 1.32 0 2 0 C5 4.38461538 5 4.38461538 5 7 C6.175625 7.4640625 6.175625 7.4640625 7.375 7.9375 C10 9 10 9 12 10 C17.30358907 10.40796839 20.38649138 9.57498156 25 7 C25.66 7 26.32 7 27 7 C27.309375 6.21625 27.61875 5.4325 27.9375 4.625 C29 2 29 2 30 0 C30.66 0 31.32 0 32 0 C31.38506636 6.27232312 30.22541393 9.94577176 25.5625 14.25 C21.07425618 17.31514212 16.38614052 17.74865274 11 17 C6.67058673 14.75203542 3.55665095 12.16639414 1 8 C0.40126811 5.29815944 0.18823456 2.7764597 0 0 Z " fill="#5F5A59" transform="translate(169,202)"/>
<path d="M0 0 C-0.77255171 8.111793 -5.26142727 12.49830517 -11 17.77734375 C-13 19 -13 19 -15.109375 18.8984375 C-17.39898814 17.8103982 -18.05505781 16.90193652 -19.25 14.6875 C-19.75273437 13.79611328 -19.75273437 13.79611328 -20.265625 12.88671875 C-21 11 -21 11 -21 7 C-19.96875 7.103125 -18.9375 7.20625 -17.875 7.3125 C-13.02179326 6.92111236 -11.49694237 5.26381288 -8 2 C-4.83482343 0.045038 -3.94733824 0 0 0 Z " fill="#FCF8F8" transform="translate(468,138)"/>
<path d="M0 0 C0.7425 0.804375 1.485 1.60875 2.25 2.4375 C4.75304829 4.76988591 5.7180955 5.63534394 9 6 C8.690625 6.515625 8.38125 7.03125 8.0625 7.5625 C6.70940713 10.66665423 6.38640576 13.65115007 6 17 C4.01432292 16.70703125 2.02864583 16.4140625 0.04296875 16.12109375 C-2.2025342 15.86095201 -2.2025342 15.86095201 -5 17 C-5.1953125 15.01432292 -5.390625 13.02864583 -5.5859375 11.04296875 C-5.92665391 8.70011858 -5.92665391 8.70011858 -8 6 C-7 5 -7 5 -4.4375 4.9375 C-3.2309375 4.9684375 -3.2309375 4.9684375 -2 5 C-1.34 3.35 -0.68 1.7 0 0 Z " fill="#F2AB4A" transform="translate(361,64)"/>
<path d="M0 0 C1.5 1.375 1.5 1.375 3 3 C3 3.66 3 4.32 3 5 C5.97 5.495 5.97 5.495 9 6 C8.690625 6.53625 8.38125 7.0725 8.0625 7.625 C6.82172561 10.3984957 6.4090325 13.00042837 6 16 C2.37 16 -1.26 16 -5 16 C-6.19287411 12.12315913 -7 9.08378077 -7 5 C-5.35 5 -3.7 5 -2 5 C-1.34 3.35 -0.68 1.7 0 0 Z " fill="#F4AB48" transform="translate(383,64)"/>
<path d="M0 0 C1.5 1.375 1.5 1.375 3 3 C3 3.66 3 4.32 3 5 C5.97 5.495 5.97 5.495 9 6 C8.690625 6.53625 8.38125 7.0725 8.0625 7.625 C6.82172561 10.3984957 6.4090325 13.00042837 6 16 C2.37 16 -1.26 16 -5 16 C-5.309375 14.906875 -5.61875 13.81375 -5.9375 12.6875 C-6.58337897 10.44592006 -7.2623117 8.2130649 -8 6 C-6.576875 5.9071875 -6.576875 5.9071875 -5.125 5.8125 C-4.09375 5.544375 -3.0625 5.27625 -2 5 C-0.54708727 2.53744315 -0.54708727 2.53744315 0 0 Z " fill="#F4AB48" transform="translate(405,64)"/>
<path d="M0 0 C0.66 0 1.32 0 2 0 C2.20625 0.61875 2.4125 1.2375 2.625 1.875 C4.54775888 4.84653645 6.66594527 5.13024659 10 6 C9.505 6.53625 9.01 7.0725 8.5 7.625 C6.62510456 10.59358445 6.76498575 12.55312427 7 16 C5.01432292 15.96744792 3.02864583 15.93489583 1.04296875 15.90234375 C-1.20305461 15.91736783 -1.20305461 15.91736783 -4 17 C-4.12375 15.88625 -4.2475 14.7725 -4.375 13.625 C-4.6465813 9.96896323 -4.6465813 9.96896323 -7 8 C-7 7.01 -7 6.02 -7 5 C-5.824375 4.87625 -5.824375 4.87625 -4.625 4.75 C-1.85250896 4.27193661 -1.85250896 4.27193661 -0.6875 1.9375 C-0.460625 1.298125 -0.23375 0.65875 0 0 Z " fill="#CCD6FC" transform="translate(426,64)"/>
<path d="M0 0 C0.66 0 1.32 0 2 0 C2.3403125 0.9590625 2.3403125 0.9590625 2.6875 1.9375 C3.85250896 4.27193661 3.85250896 4.27193661 6.625 4.75 C7.40875 4.8325 8.1925 4.915 9 5 C8.11223998 8.69900008 7.05418136 12.34550461 6 16 C5.113125 15.814375 4.22625 15.62875 3.3125 15.4375 C0.14821189 15.01957516 -1.94839642 15.19222258 -5 16 C-4.9071875 14.63875 -4.9071875 14.63875 -4.8125 13.25 C-5.01672076 9.71017358 -5.64551835 8.55068845 -8 6 C-7.05125 5.7525 -6.1025 5.505 -5.125 5.25 C-1.91306809 4.3142923 -1.91306809 4.3142923 -0.625 1.875 C-0.41875 1.25625 -0.2125 0.6375 0 0 Z " fill="#FA9A10" transform="translate(453,193)"/>
<path d="M0 0 C0.99 0.33 1.98 0.66 3 1 C3.6875 3.0625 3.6875 3.0625 4 5 C5.65 5 7.3 5 9 5 C9 5.99 9 6.98 9 8 C8.34 8.66 7.68 9.32 7 10 C6.83318891 13.08347826 6.83318891 13.08347826 7 16 C5.39125 15.7215625 5.39125 15.7215625 3.75 15.4375 C0.59608454 15.0695432 -1.09818492 14.95534657 -4 16 C-6.14285714 8.57142857 -6.14285714 8.57142857 -7 5 C-5.824375 4.87625 -5.824375 4.87625 -4.625 4.75 C-1.85250896 4.27193661 -1.85250896 4.27193661 -0.6875 1.9375 C-0.460625 1.298125 -0.23375 0.65875 0 0 Z " fill="#FA9A10" transform="translate(431,193)"/>
<path d="M0 0 C1.5 1.375 1.5 1.375 3 3 C3 3.66 3 4.32 3 5 C4.65 5 6.3 5 8 5 C8 5.99 8 6.98 8 8 C7.67 8.33 7.34 8.66 7 9 C6.63239269 11.32817964 6.29758419 13.6618385 6 16 C4.39125 15.7215625 4.39125 15.7215625 2.75 15.4375 C-0.40391546 15.0695432 -2.09818492 14.95534657 -5 16 C-5.12375 14.9275 -5.2475 13.855 -5.375 12.75 C-5.89643936 9.62136385 -6.40088254 7.66519576 -8 5 C-7.05125 4.731875 -6.1025 4.46375 -5.125 4.1875 C-1.74732727 3.25013412 -1.74732727 3.25013412 0 0 Z " fill="#D3D7F4" transform="translate(475,193)"/>
<path d="M0 0 C0.8353125 0.9590625 0.8353125 0.9590625 1.6875 1.9375 C4.22066561 4.19680987 5.68341424 4.63149047 9 5 C8.690625 5.515625 8.38125 6.03125 8.0625 6.5625 C6.70940713 9.66665423 6.38640576 12.65115007 6 16 C4.39125 15.7215625 4.39125 15.7215625 2.75 15.4375 C-0.40391546 15.0695432 -2.09818492 14.95534657 -5 16 C-4.9071875 14.63875 -4.9071875 14.63875 -4.8125 13.25 C-5.01672076 9.71017358 -5.64551835 8.55068845 -8 6 C-7 5 -7 5 -4.4375 4.9375 C-3.2309375 4.9684375 -3.2309375 4.9684375 -2 5 C-1.34 3.35 -0.68 1.7 0 0 Z " fill="#FA990F" transform="translate(410,193)"/>
<path d="M0 0 C6.46153846 0.46153846 6.46153846 0.46153846 9 3 C8.67028521 6.29714793 8.3773161 7.6226839 6 10 C2.8357765 10.33661952 0.81486618 10.49943411 -1.9375 8.8125 C-3 7 -3 7 -2.8125 4.4375 C-2 2 -2 2 0 0 Z " fill="#5B5756" transform="translate(169,165)"/>
<path d="M0 0 C1.8125 1.1875 1.8125 1.1875 3 3 C3.375 5.5625 3.375 5.5625 3 8 C-0.45245824 10.30163882 -1.94738713 10.34490322 -6 10 C-8 8 -8 8 -8.3125 5 C-8.209375 4.01 -8.10625 3.02 -8 2 C-4.76746204 -0.15502531 -3.74849077 -0.46856135 0 0 Z " fill="#5A5655" transform="translate(209,165)"/>
</svg>
